<?xml version="1.0" standalone="no"?>
<!DOCTYPE svg PUBLIC "-//W3C//DTD SVG 20010904//EN"
 "http://www.w3.org/TR/2001/REC-SVG-20010904/DTD/svg10.dtd">
<svg version="1.0" xmlns="http://www.w3.org/2000/svg"
 width="408.000000pt" height="408.000000pt" viewBox="0 0 408.000000 408.000000"
 preserveAspectRatio="xMidYMid meet">
<metadata>
Created by potrace 1.11, written by Peter Selinger 2001-2013
</metadata>
<g transform="translate(0.000000,408.000000) scale(0.100000,-0.100000)"
fill="#000000" stroke="none">
<path d="M0 3380 c0 -11 4 -20 8 -20 5 0 17 9 27 20 18 20 17 20 -8 20 -20 0
-27 -5 -27 -20z"/>
<path d="M2640 3371 c-25 -15 -119 -70 -210 -121 -91 -51 -228 -130 -305 -175
-260 -152 -344 -196 -368 -190 -17 4 -93 -42 -327 -197 l-305 -203 -2 -40 c-2
-22 -8 -73 -14 -113 -12 -73 -24 -85 -44 -46 -14 27 -45 30 -45 5 0 -11 6 -21
13 -24 6 -2 -1 -8 -18 -12 -16 -5 -32 -11 -35 -14 -3 -3 -15 -12 -27 -18 -19
-11 -24 -10 -33 6 -5 11 -7 39 -4 64 l6 44 -53 -5 c-73 -6 -95 -27 -103 -100
-8 -69 -21 -95 -36 -72 -6 8 -10 29 -9 45 2 47 1 48 -30 23 -16 -12 -39 -30
-51 -39 -12 -9 -22 -23 -24 -30 -1 -8 -9 -29 -19 -48 -9 -19 -17 -40 -17 -48
0 -7 -7 -13 -16 -13 -8 0 -25 -5 -37 -12 -12 -7 -28 -13 -34 -14 -15 -3 -17
22 -3 31 18 11 11 23 -11 18 -12 -3 -18 -11 -15 -19 6 -17 -3 -44 -14 -44 -5
0 -11 9 -15 19 -6 20 -45 18 -45 -3 -1 -12 -34 -52 -62 -74 -13 -10 -22 -11
-37 -3 -17 9 -26 6 -54 -19 -35 -30 -57 -38 -57 -20 0 22 -38 8 -68 -26 -32
-36 -42 -74 -20 -74 6 0 8 -3 5 -7 -4 -3 -1 -13 5 -21 10 -11 9 -17 -2 -26
-18 -14 -14 -65 6 -73 21 -8 17 -23 -6 -23 -17 0 -20 -7 -20 -50 0 -41 -3 -50
-17 -50 -22 -1 61 -41 87 -43 10 -1 17 -4 14 -8 -6 -10 50 -37 91 -45 25 -4
34 -2 39 12 4 9 2 22 -4 28 -12 12 -13 66 -1 66 32 0 38 -11 30 -62 -5 -29 -7
-52 -6 -53 1 0 19 -8 40 -18 49 -22 70 -22 63 1 -3 9 -7 38 -10 64 -6 52 -1
57 57 50 36 -4 38 -6 33 -31 -3 -14 -9 -42 -12 -61 -10 -50 -23 -65 -40 -43
-12 17 -13 17 -14 1 0 -9 10 -20 21 -23 12 -4 42 -20 67 -36 25 -16 61 -34 81
-40 20 -6 43 -17 51 -24 26 -20 157 -64 228 -75 67 -11 181 -47 257 -80 22
-10 87 -34 145 -54 58 -20 114 -40 125 -45 11 -5 43 -17 70 -26 62 -21 110
-41 155 -65 19 -10 87 -32 150 -50 63 -18 120 -36 126 -41 6 -5 19 -10 30 -12
10 -2 30 -8 44 -14 14 -5 63 -22 110 -38 47 -15 103 -34 125 -42 22 -8 80 -28
128 -44 l89 -29 824 0 824 0 0 1360 0 1360 -596 0 -596 0 6 -92 c3 -51 12
-142 18 -202 11 -102 11 -109 -7 -122 -28 -21 -33 -18 -45 24 -16 55 -25 310
-12 355 l10 37 -86 -1 c-77 0 -92 -4 -132 -28z m151 -21 c5 0 9 -21 9 -47 0
-27 5 -115 12 -197 11 -141 11 -149 -7 -162 -10 -8 -23 -10 -27 -6 -11 11 -28
160 -28 251 0 79 22 222 28 184 2 -13 8 -23 13 -23z m-112 -96 c-15 -19 -59
-18 -59 1 0 9 -6 12 -15 9 -8 -4 -15 -1 -15 4 0 6 21 22 48 35 l47 24 3 -29
c2 -16 -2 -36 -9 -44z m-36 -47 c-4 -7 5 -4 19 5 22 15 27 15 32 3 4 -10 -6
-20 -31 -30 -19 -8 -37 -15 -39 -15 -7 0 -4 46 2 53 11 10 25 -3 17 -16z
m-103 -39 c0 -12 -8 -31 -17 -42 -17 -20 -17 -20 0 -7 15 12 17 11 17 -7 0
-13 -9 -22 -25 -26 -14 -4 -25 -11 -25 -17 0 -6 6 -9 13 -6 6 3 20 8 30 12 11
5 17 3 17 -6 -1 -16 -98 -65 -108 -54 -4 4 2 13 13 21 11 8 19 24 17 35 -2 11
4 22 14 26 16 6 16 7 -1 19 -15 12 -17 18 -7 39 6 14 16 25 22 25 14 0 12 -17
-2 -23 -7 -2 -10 -8 -6 -12 10 -10 41 22 33 35 -3 5 -1 10 4 10 6 0 11 -10 11
-22z m155 -8 c4 -12 1 -28 -7 -37 -9 -12 -9 -15 0 -9 8 5 12 -1 12 -22 0 -16
3 -44 6 -62 5 -24 3 -31 -7 -29 -18 4 -89 -23 -89 -33 0 -4 -4 -8 -10 -8 -5 0
-10 10 -10 23 0 17 11 26 45 40 46 19 66 55 23 42 -16 -6 -20 -4 -15 8 3 9 -1
18 -9 21 -22 8 -17 52 9 69 30 22 44 21 52 -3z m-288 -46 c0 -38 -4 -48 -24
-57 -12 -5 -23 -14 -23 -19 0 -5 11 -1 25 8 23 15 25 15 25 0 0 -9 -11 -22
-25 -28 -14 -6 -25 -15 -25 -20 0 -5 9 -4 19 2 26 13 31 13 31 -5 0 -8 -5 -15
-11 -15 -6 0 -3 -7 5 -16 31 -30 15 -71 -39 -103 -20 -11 -37 -21 -38 -21 -2
0 -4 11 -5 26 -1 14 2 23 7 19 16 -9 61 17 61 37 0 25 -25 23 -50 -4 l-20 -22
0 27 c0 16 6 27 13 27 9 0 13 14 13 45 -1 25 -4 45 -8 45 -21 0 -4 21 27 34
37 16 49 32 15 21 -28 -9 -37 20 -15 45 30 33 43 25 42 -26z m-97 0 c0 -4 -8
-13 -17 -20 -10 -7 -14 -16 -10 -20 4 -5 12 -2 17 6 8 13 10 12 10 -3 0 -10
-11 -22 -24 -27 -13 -5 -27 -13 -31 -19 -3 -7 0 -8 9 -5 24 9 19 -11 -6 -30
-23 -16 -23 -16 -2 -11 17 4 23 0 29 -22 4 -19 2 -31 -10 -39 -14 -10 -14 -12
0 -18 9 -3 15 -18 15 -38 0 -42 -13 -63 -34 -55 -9 4 -16 2 -16 -3 0 -6 -9
-10 -20 -10 -17 0 -20 7 -20 41 0 32 3 40 15 35 9 -3 19 3 26 15 9 19 9 19
-10 10 -36 -20 -33 6 4 29 37 23 49 38 16 21 -16 -9 -20 -6 -25 15 -4 15 -2
32 6 41 10 12 9 18 -6 28 -17 13 -17 14 1 34 9 12 25 21 34 21 9 0 19 7 23 15
5 15 26 21 26 9z m-148 -209 c1 -80 2 -164 3 -187 0 -45 -18 -62 -29 -26 -14
46 -19 272 -7 316 21 77 31 46 33 -103z m-59 -82 c2 -131 0 -173 -9 -173 -20
0 -26 30 -31 170 -5 119 -3 140 13 170 22 43 22 45 27 -167z m447 162 c0 -15
-6 -25 -14 -25 -23 0 -68 -27 -57 -35 17 -10 13 -27 -6 -23 -13 2 -20 16 -24
48 -7 52 -3 62 16 36 14 -18 15 -18 47 2 18 11 34 21 36 21 1 1 2 -10 2 -24z
m325 -297 c0 -79 2 -199 5 -268 5 -122 4 -125 -16 -128 -27 -4 -32 14 -48 187
-11 121 -11 143 5 222 17 80 35 129 49 129 3 0 5 -64 5 -142z m-100 -10 c0
-57 4 -171 8 -254 8 -147 7 -152 -13 -157 -11 -3 -22 -2 -25 2 -2 4 -12 77
-21 162 -14 139 -15 161 -1 227 13 60 38 122 50 122 1 0 2 -46 2 -102z m-1148
-30 c-6 -103 -10 -111 -53 -131 -43 -21 -40 -22 -52 11 -13 33 -1 108 16 104
8 -1 10 6 7 21 -8 32 28 77 62 77 l26 0 -6 -82z m1040 68 c-11 -9 -14 -17 -8
-20 21 -13 -16 -66 -46 -66 -7 0 -13 5 -13 10 0 6 9 10 20 10 10 0 24 9 30 21
11 20 10 21 -23 16 -19 -2 -40 -8 -46 -11 -6 -4 -11 -3 -11 2 0 4 21 18 48 29
55 25 74 28 49 9z m-940 -68 c-3 -7 -5 -2 -5 12 0 14 2 19 5 13 2 -7 2 -19 0
-25z m883 22 c0 -5 -5 -10 -11 -10 -5 0 -7 5 -4 10 3 6 8 10 11 10 2 0 4 -4 4
-10z m21 -69 c22 14 29 11 29 -11 0 -11 -7 -20 -15 -20 -12 0 -11 -4 5 -20 16
-16 18 -25 10 -45 -6 -16 -6 -25 0 -25 6 0 10 -28 10 -62 l0 -63 -47 -1 c-26
-1 -49 -7 -51 -13 -7 -21 -17 -11 -18 18 -1 21 3 29 15 28 37 -2 71 14 71 33
0 12 -7 20 -16 20 -10 0 -14 6 -10 15 3 9 0 15 -9 15 -18 0 -24 29 -21 90 4
64 5 67 19 48 9 -11 18 -14 28 -7z m-261 -11 c0 -5 -7 -10 -15 -10 -7 0 -19
-8 -24 -17 -10 -17 -10 -17 -11 -1 0 9 8 22 18 27 22 13 32 14 32 1z m136 -52
c-1 -35 -5 -43 -21 -46 -11 -2 -24 -8 -30 -14 -7 -7 0 -8 22 -3 26 5 31 3 29
-11 -2 -11 -19 -22 -47 -30 -56 -17 -59 -17 -59 1 0 8 7 15 15 15 9 0 15 9 15
23 0 13 5 28 12 35 8 8 8 15 -1 26 -9 11 -10 20 -1 35 13 26 26 27 39 4 9 -16
10 -15 11 7 0 16 3 21 8 12 5 -6 8 -31 8 -54z m-250 6 c-20 -20 -20 -28 0 -20
10 4 14 1 11 -6 -2 -7 -11 -13 -19 -13 -8 0 -22 -6 -31 -13 -10 -9 -17 -10
-22 -2 -3 5 1 10 9 10 9 0 16 8 16 17 0 13 -3 14 -12 5 -21 -21 -32 -13 -13 8
10 12 25 18 32 16 7 -3 18 5 25 17 7 13 13 17 15 10 3 -7 -3 -20 -11 -29z
m104 1 c-7 -8 -19 -15 -27 -15 -10 0 -8 6 8 19 27 22 38 19 19 -4z m-237 -47
c-5 -24 -7 -118 -6 -210 1 -155 -5 -195 -21 -151 -12 30 -28 226 -22 264 9 54
38 139 48 139 4 0 5 -19 1 -42z m247 18 c0 -8 -15 -23 -34 -34 -31 -18 -35
-19 -41 -5 -6 18 10 33 37 33 9 0 20 5 23 10 9 14 15 12 15 -4z m-312 -56 c-6
-32 -8 -117 -5 -203 5 -112 3 -147 -6 -144 -26 8 -46 228 -27 309 11 49 37
104 45 96 2 -1 -1 -28 -7 -58z m312 11 c0 -12 -9 -21 -25 -25 -14 -4 -25 -11
-25 -17 0 -7 10 -9 25 -5 36 9 32 -17 -4 -31 -35 -13 -41 -9 -41 29 0 21 8 33
33 48 39 24 37 24 37 1z m-130 -6 c0 -8 -9 -15 -19 -15 -11 0 -23 -5 -27 -11
-5 -8 1 -10 20 -7 21 4 26 1 26 -15 0 -11 -3 -18 -6 -14 -3 3 -17 2 -30 -3
-22 -9 -24 -7 -24 24 0 24 6 36 23 44 31 15 37 14 37 -3z m185 -75 c8 -24 20
-25 58 -6 27 15 27 14 27 -15 0 -19 -4 -28 -11 -24 -17 11 -68 -15 -62 -31 3
-8 -1 -14 -11 -14 -12 0 -16 10 -16 39 0 22 -3 46 -6 55 -3 9 -1 16 4 16 6 0
14 -9 17 -20z m-707 -25 c1 -1 -4 -29 -13 -61 -9 -32 -18 -107 -22 -166 -6
-99 -8 -108 -26 -108 -31 0 -46 30 -47 90 0 67 19 225 31 257 9 23 9 23 41 7
18 -9 34 -18 36 -19z m522 10 c0 -8 -4 -15 -9 -15 -5 0 -23 -3 -40 -6 -38 -8
-41 8 -3 23 39 16 52 15 52 -2z m130 -34 c0 -36 -9 -46 -52 -64 -35 -15 -36
-15 -41 10 -3 18 -1 23 9 19 21 -8 64 11 64 29 0 23 -27 29 -53 12 -21 -14
-23 -13 -25 8 -1 18 2 22 17 18 11 -3 28 0 38 5 24 14 43 -3 43 -37z m-132
-40 c4 -50 -9 -71 -33 -51 -10 8 -15 9 -15 1 0 -6 -7 -11 -15 -11 -15 0 -29
37 -23 65 5 24 23 13 20 -12 -5 -37 6 -26 18 18 8 29 16 39 28 37 12 -2 18
-15 20 -47z m-714 23 c12 -5 14 -21 10 -92 -7 -113 -10 -129 -31 -135 -10 -2
-25 -8 -34 -12 -26 -10 -45 40 -41 103 4 51 16 69 25 35 2 -10 2 -4 0 14 -4
37 21 93 41 93 8 0 21 -3 30 -6z m-684 -83 c0 -78 -10 -111 -33 -111 -18 0
-19 5 -14 58 10 110 47 151 47 53z m226 -118 c-3 -21 -9 -73 -12 -115 -4 -43
-10 -78 -15 -78 -5 0 -9 7 -9 15 0 8 -5 15 -11 15 -6 0 -9 6 -6 14 3 8 2 27
-3 43 -4 15 -9 22 -9 15 -1 -7 -5 -11 -10 -8 -5 3 -17 -7 -27 -22 -18 -27 -20
-31 -23 -53 0 -6 -11 -9 -23 -7 -24 3 -35 30 -37 91 -1 34 3 39 31 52 21 8 39
10 50 4 22 -12 28 -11 28 3 0 17 51 68 68 68 11 0 13 -9 8 -37z m1848 -33 c-1
-38 -43 -490 -47 -504 -2 -5 -10 -2 -18 7 -29 28 -44 183 -30 300 14 119 38
219 54 229 25 17 42 3 41 -32z m-104 -7 c0 -16 -9 -102 -20 -193 -11 -91 -20
-200 -20 -242 0 -42 -4 -79 -9 -82 -25 -16 -56 146 -48 255 10 122 38 263 55
277 26 20 42 14 42 -15z m-2004 -94 c-3 -34 -6 -77 -6 -96 0 -38 -23 -54 -46
-31 -13 12 -13 26 -4 83 13 79 24 105 47 105 13 0 15 -9 9 -61z m-78 -26 c-5
-32 -15 -65 -23 -73 -8 -8 -15 -10 -15 -5 -1 6 -5 29 -9 53 -5 23 -5 42 -1 42
4 0 10 9 13 20 3 11 14 20 25 20 18 0 18 -4 10 -57z m1378 20 c-3 -10 -15 -67
-27 -128 -17 -85 -20 -131 -16 -202 3 -53 1 -93 -4 -93 -9 0 -13 14 -29 107
-19 108 30 333 72 333 5 0 7 -8 4 -17z m574 -24 c0 -33 -6 -47 -30 -69 -35
-33 -38 -44 -10 -35 17 5 20 2 20 -24 0 -17 -5 -31 -10 -31 -7 0 -7 -7 1 -21
9 -18 7 -27 -10 -50 -17 -22 -18 -29 -7 -29 11 0 15 -16 18 -62 l3 -63 -52 3
c-29 2 -53 8 -53 12 0 5 -2 14 -5 22 -4 10 4 13 36 10 22 -3 45 0 50 5 15 15
-1 43 -23 43 -17 0 -18 3 -9 14 10 11 8 16 -8 21 -25 8 -38 50 -21 70 6 8 8
19 4 26 -10 17 -7 71 4 78 17 10 2 60 -15 54 -11 -4 -14 0 -11 18 3 21 10 25
56 30 29 4 56 10 59 13 11 11 13 6 13 -35z m-1700 12 c0 -6 -4 -13 -10 -16 -5
-3 -10 1 -10 9 0 9 5 16 10 16 6 0 10 -4 10 -9z m1060 -1 c0 -5 -10 -49 -22
-97 -17 -68 -21 -116 -20 -212 0 -68 -1 -121 -3 -119 -16 16 -37 170 -31 228
9 87 45 210 62 210 8 0 14 -4 14 -10z m-1420 -13 c0 -2 -6 -17 -14 -33 -8 -16
-19 -41 -25 -56 -6 -16 -17 -28 -26 -28 -8 0 -18 0 -22 -1 -13 -1 -20 45 -10
67 11 25 97 70 97 51z m1625 -76 c-8 -36 -22 -48 -38 -32 -7 7 -14 7 -24 -1
-11 -8 -19 -6 -35 12 l-21 23 24 18 c13 11 32 17 41 15 9 -2 19 3 23 12 5 14
7 14 21 0 12 -11 14 -25 9 -47z m109 33 c3 -8 2 -23 -4 -33 -5 -10 -7 -27 -4
-38 6 -23 -10 -38 -53 -46 -23 -5 -33 -2 -37 9 -7 18 20 49 29 34 8 -12 35
-13 35 -1 0 5 -9 11 -20 14 -38 10 -16 77 24 77 13 0 27 -7 30 -16z m141 -71
c-5 -15 -7 -32 -6 -37 5 -24 -11 -43 -33 -39 -13 3 -27 0 -30 -6 -5 -7 4 -11
23 -11 24 0 31 -4 31 -20 0 -18 -7 -20 -55 -20 -42 0 -55 3 -55 15 0 8 7 15
15 15 8 0 15 9 15 19 0 11 6 26 14 34 10 10 11 18 5 24 -6 6 -9 23 -7 39 2 24
8 29 31 29 15 -1 27 4 27 9 0 6 7 3 16 -6 12 -12 14 -24 9 -45z m-858 15 c-7
-20 -12 -90 -12 -170 0 -88 -4 -137 -10 -135 -26 9 -12 266 16 320 16 28 19
19 6 -15z m-1183 13 c8 -12 -3 -41 -15 -41 -5 0 -9 11 -9 25 0 25 14 34 24 16z
m-91 -46 c-12 -25 -23 -35 -40 -35 -19 0 -23 5 -23 29 0 32 10 39 52 40 l28 1
-17 -35z m1154 10 c13 -13 13 -27 4 -98 -6 -45 -12 -93 -14 -107 -2 -21 -7
-25 -36 -25 -28 0 -37 6 -53 33 -10 18 -15 39 -11 45 4 7 8 19 8 27 1 8 2 25
3 38 1 12 6 22 12 22 5 0 7 -14 3 -32 -3 -19 -2 -29 3 -25 5 5 9 30 10 57 1
71 34 101 71 65z m-482 -90 c-14 -43 -25 -91 -25 -107 0 -41 -17 -26 -25 23
-5 28 -11 39 -20 35 -8 -3 -16 0 -19 7 -2 7 -5 5 -5 -4 -1 -16 -27 -34 -44
-30 -5 1 -11 -8 -14 -19 -14 -53 -48 19 -38 79 7 38 25 71 39 71 5 0 24 -11
42 -25 37 -28 44 -30 44 -12 0 19 71 80 82 69 5 -5 -1 -39 -17 -87z m1169 71
c-3 -9 -17 -16 -30 -16 -13 0 -24 -5 -24 -11 0 -7 10 -9 25 -7 19 4 25 1 25
-13 0 -15 -8 -19 -35 -19 -30 0 -35 3 -35 23 0 31 20 55 50 59 31 5 32 4 24
-16z m134 -43 c-2 -13 -11 -17 -31 -15 -20 3 -27 -1 -27 -13 0 -13 6 -16 25
-11 20 5 25 3 25 -11 0 -14 -8 -18 -32 -18 -29 0 -33 4 -36 28 -4 37 13 57 50
57 23 0 29 -4 26 -17z m-1598 -20 c0 -35 -22 -97 -35 -103 -14 -7 -18 85 -5
110 16 30 40 25 40 -7z m-189 -14 c-2 -8 -7 -34 -10 -59 -6 -41 -8 -44 -36
-44 -28 0 -30 2 -36 49 -7 60 -4 68 26 61 13 -3 27 -1 30 4 9 15 31 5 26 -11z
m1643 -24 c-5 -11 -18 -15 -45 -13 -61 4 -50 28 12 28 30 0 37 -3 33 -15z
m-1854 -15 c0 -11 -4 -20 -10 -20 -5 0 -10 -9 -10 -20 0 -30 -26 -24 -43 9
-14 27 -13 30 7 39 35 17 56 14 56 -8z m1953 -11 c55 3 57 -89 2 -103 -29 -7
-45 -1 -45 17 0 7 14 12 33 12 28 0 32 3 32 25 0 22 -4 25 -37 25 -27 0 -38 5
-42 18 -3 14 -1 17 12 11 9 -3 29 -6 45 -5z m102 -18 c13 -26 19 -29 48 -24
29 4 35 2 40 -18 7 -28 3 -34 -15 -23 -19 12 -68 11 -68 -1 0 -6 5 -16 12 -23
7 -7 8 -12 3 -12 -21 0 -31 17 -33 55 -2 22 -5 48 -8 58 -8 27 4 20 21 -12z
m-205 0 c13 -26 13 -52 -1 -28 -16 27 -25 20 -35 -25 -9 -40 -10 -41 -26 -24
-11 10 -18 32 -18 53 0 20 3 33 8 29 4 -4 7 -16 7 -27 0 -24 19 -26 23 -2 8
48 24 57 42 24z m3 -88 c-3 -7 -9 -10 -14 -7 -14 8 -11 21 5 21 8 0 12 -6 9
-14z m-1993 -33 c0 -5 -4 -10 -10 -10 -5 0 -10 5 -10 10 0 6 5 10 10 10 6 0
10 -4 10 -10z m660 -65 c0 -14 7 -28 15 -31 35 -14 7 -67 -39 -72 l-28 -3 7
58 c8 66 11 73 31 73 8 0 14 -10 14 -25z m-204 -46 c-7 -74 -15 -89 -31 -60
-15 29 2 121 23 121 12 0 14 -12 8 -61z m68 -16 c-7 -101 -12 -125 -27 -120
-7 2 -13 16 -15 32 -4 32 28 165 39 165 4 0 5 -35 3 -77z m311 56 c4 -5 -2
-36 -13 -67 -11 -31 -23 -69 -26 -85 -6 -27 -7 -27 -27 -8 -16 15 -20 26 -15
46 4 16 2 33 -5 41 -14 17 -3 48 15 41 8 -3 18 5 25 19 11 25 35 32 46 13z
m-100 -79 c18 -20 17 -20 -18 -20 -39 0 -45 8 -25 28 16 16 22 15 43 -8z m-30
-40 c3 -5 -1 -10 -10 -10 -9 0 -13 5 -10 10 3 6 8 10 10 10 2 0 7 -4 10 -10z
m1131 -7 c-16 -53 -35 -170 -41 -260 -4 -62 -11 -100 -17 -97 -5 3 -7 12 -4
20 3 8 0 14 -6 14 -19 0 2 249 27 328 3 6 14 12 25 12 16 0 20 -5 16 -17z m71
-10 c-3 -16 -12 -62 -20 -103 -8 -41 -18 -120 -22 -175 -3 -55 -10 -104 -14
-108 -14 -14 -22 163 -12 249 16 131 27 164 58 164 11 0 14 -8 10 -27z m-545
-18 c15 -20 16 -33 8 -97 -18 -128 -23 -143 -51 -140 -45 4 -56 13 -31 23 22
8 31 39 12 39 -5 0 -10 7 -10 16 0 13 -3 14 -14 5 -8 -7 -12 -22 -9 -34 4 -16
-1 -12 -17 13 -14 21 -18 36 -11 38 6 2 12 16 12 30 1 17 3 21 6 10 5 -21 14
-23 30 -7 7 7 8 22 2 44 -20 71 34 115 73 60z m1340 -37 c3 -7 1 -33 -3 -58
-44 -263 -71 -416 -78 -428 -10 -18 -24 113 -24 233 0 79 13 195 29 248 6 20
70 25 76 5z m123 -52 c-8 -60 -41 -243 -55 -304 -6 -23 -10 -51 -10 -62 0 -13
-7 -20 -19 -20 -15 0 -19 10 -25 53 -15 127 4 346 33 381 6 7 26 10 46 8 l37
-4 -7 -52z m-1555 34 c0 -5 -4 -10 -10 -10 -5 0 -10 5 -10 10 0 6 5 10 10 10
6 0 10 -4 10 -10z m790 -59 c0 -20 -6 -45 -13 -55 -11 -16 -15 -16 -25 -3 -7
8 -22 13 -33 10 -15 -4 -22 0 -26 16 -3 11 -9 21 -14 21 -21 0 -6 26 22 39 24
10 33 11 38 2 6 -9 11 -8 21 3 18 23 30 10 30 -33z m120 -11 c8 -15 7 -26 -2
-42 -6 -13 -11 -35 -9 -50 2 -26 0 -28 -36 -28 -27 0 -42 6 -50 19 -10 16 -9
20 8 24 10 3 22 1 25 -4 7 -12 44 -12 44 0 0 5 -10 11 -22 13 -29 4 -47 50
-28 72 18 22 57 20 70 -4z m333 0 l38 0 -6 -47 c-7 -50 -37 -88 -62 -79 -8 3
-13 -2 -13 -14 0 -12 8 -20 22 -22 13 -2 24 -11 26 -20 3 -15 -4 -18 -43 -18
l-47 0 3 53 c4 84 0 107 -16 107 -10 0 -15 10 -15 26 0 25 2 26 38 20 20 -3
54 -6 75 -6z m-507 -60 c8 0 14 -7 14 -16 0 -12 -6 -15 -25 -10 -18 5 -25 2
-25 -9 0 -8 9 -15 20 -15 11 0 23 -7 27 -15 8 -22 -4 -30 -21 -16 -8 6 -20 10
-27 9 -16 -4 -23 25 -14 59 4 17 11 23 21 19 9 -3 22 -6 30 -6z m308 -4 c27
-1 35 -56 11 -80 -9 -9 -12 -16 -6 -16 6 0 11 -9 11 -21 0 -16 -6 -20 -27 -19
-43 3 -46 1 -33 -15 7 -8 21 -15 31 -15 11 0 19 -6 19 -14 0 -11 -9 -13 -37
-9 -45 7 -73 20 -73 33 0 6 9 10 20 10 13 0 20 7 20 20 0 10 8 23 18 29 16 9
16 10 0 16 -12 5 -18 18 -18 39 0 34 17 59 33 49 5 -3 19 -6 31 -7z m-144 -92
c0 -13 -7 -15 -31 -10 -25 5 -30 3 -27 -12 2 -9 13 -18 26 -20 12 -2 22 -9 22
-17 0 -9 -8 -11 -22 -8 -42 11 -48 23 -39 76 0 4 17 7 36 7 26 0 35 -4 35 -16z
m-159 -14 c3 0 6 -6 6 -14 0 -11 -6 -12 -23 -6 -12 5 -25 6 -28 3 -3 -4 -6 -1
-6 5 0 6 -8 13 -17 16 -10 3 0 3 22 1 22 -2 43 -4 46 -5z m-1 -60 c6 -11 7
-20 3 -20 -5 0 -14 9 -21 20 -7 11 -8 20 -2 20 5 0 14 -9 20 -20z m489 6 c19
-23 10 -70 -14 -75 -19 -3 -19 -3 -2 17 17 18 17 21 2 36 -22 22 -38 10 -33
-25 5 -31 -6 -39 -16 -13 -10 26 -7 62 7 67 23 10 45 7 56 -7z m-389 -22 c0
-2 -9 -4 -20 -4 -11 0 -20 4 -20 9 0 5 9 7 20 4 11 -3 20 -7 20 -9z m44 -20
c5 -14 4 -15 -9 -4 -17 14 -19 20 -6 20 5 0 12 -7 15 -16z m-194 -38 c0 -5 -7
-3 -15 4 -8 7 -15 20 -15 28 0 13 3 12 15 -4 8 -10 15 -23 15 -28z m46 -23
c-7 -7 -26 7 -26 19 0 6 6 6 15 -2 9 -7 13 -15 11 -17z m254 -8 c14 -16 10
-18 -14 -9 -9 3 -16 10 -16 15 0 14 16 11 30 -6z m245 -4 c10 -17 -12 -21 -25
-6 -10 12 -10 15 3 15 9 0 18 -4 22 -9z m-358 -7 c-3 -3 -12 -4 -19 -1 -8 3
-5 6 6 6 11 1 17 -2 13 -5z m173 -9 c0 -17 -2 -18 -24 -9 -23 9 -20 24 4 24
11 0 20 -7 20 -15z m-70 -37 c0 -6 -7 -5 -15 2 -8 7 -15 17 -15 22 0 6 7 5 15
-2 8 -7 15 -17 15 -22z m487 10 c-3 -8 -6 -5 -6 6 -1 11 2 17 5 13 3 -3 4 -12
1 -19z m-288 -36 c-14 -5 -39 6 -39 17 0 5 11 4 25 -2 13 -7 20 -14 14 -15z"/>
<path d="M2647 3282 c-29 -32 -13 -47 17 -16 17 17 21 34 8 34 -5 0 -16 -8
-25 -18z"/>
<path d="M2649 3158 c0 -2 -2 -13 -3 -25 -2 -18 0 -20 11 -12 15 13 17 39 3
39 -5 0 -10 -1 -11 -2z"/>
<path d="M2371 3137 c-6 -8 -8 -17 -4 -20 7 -8 33 11 33 24 0 13 -16 11 -29
-4z"/>
<path d="M2247 3074 c-4 -4 -7 -14 -7 -23 0 -11 3 -12 11 -4 6 6 10 16 7 23
-2 6 -7 8 -11 4z"/>
<path d="M2255 2870 c-3 -5 -1 -10 5 -10 6 0 8 -5 4 -12 -4 -7 -3 -8 4 -4 6 4
9 13 5 21 -6 18 -10 19 -18 5z"/>
<path d="M1540 2570 c0 -29 4 -40 13 -37 6 2 12 19 12 37 0 18 -6 35 -12 38
-9 2 -13 -9 -13 -38z"/>
<path d="M2618 2534 c-5 -4 -8 -16 -8 -28 0 -14 3 -17 11 -9 6 6 9 19 7 28 -1
9 -6 13 -10 9z"/>
<path d="M2450 2559 c0 -5 5 -7 10 -4 6 3 10 8 10 11 0 2 -4 4 -10 4 -5 0 -10
-5 -10 -11z"/>
<path d="M2206 2313 c-3 -3 -6 -16 -6 -27 0 -16 2 -18 9 -7 7 11 9 11 14 0 3
-8 6 -5 6 8 1 23 -12 37 -23 26z"/>
<path d="M1460 2136 c0 -22 3 -27 11 -19 8 8 8 16 0 30 -9 16 -10 14 -11 -11z"/>
<path d="M2625 1930 c-3 -5 -1 -10 4 -10 6 0 11 5 11 10 0 6 -2 10 -4 10 -3 0
-8 -4 -11 -10z"/>
<path d="M2597 1749 c-3 -13 -1 -19 6 -16 15 5 22 37 9 37 -5 0 -12 -9 -15
-21z"/>
<path d="M2165 1881 c-3 -5 -1 -12 5 -16 5 -3 10 1 10 9 0 18 -6 21 -15 7z"/>
<path d="M2307 1890 c-3 -11 -1 -20 4 -20 5 0 9 2 9 4 0 2 3 11 6 20 3 9 2 16
-4 16 -5 0 -12 -9 -15 -20z"/>
<path d="M1440 1653 c0 -18 5 -33 10 -33 13 0 13 30 0 50 -7 11 -10 7 -10 -17z"/>
<path d="M840 1410 c0 -5 5 -10 11 -10 5 0 7 5 4 10 -3 6 -8 10 -11 10 -2 0
-4 -4 -4 -10z"/>
<path d="M2175 1211 c-3 -5 -1 -12 5 -16 5 -3 10 1 10 9 0 18 -6 21 -15 7z"/>
<path d="M2330 1173 c0 -25 1 -26 16 -11 9 9 13 21 10 27 -13 20 -26 11 -26
-16z"/>
<path d="M2686 1141 c-4 -7 -5 -15 -2 -18 9 -9 19 4 14 18 -4 11 -6 11 -12 0z"/>
<path d="M1037 2428 c-62 -44 -67 -59 -19 -55 30 2 38 7 40 25 2 12 7 22 12
22 4 0 10 9 13 20 3 11 4 20 3 20 -1 0 -23 -15 -49 -32z"/>
</g>
</svg>
