<?xml version="1.0" standalone="no"?><!-- Generator: Gravit.io --><svg xmlns="http://www.w3.org/2000/svg" xmlns:xlink="http://www.w3.org/1999/xlink" style="isolation:isolate" viewBox="0 0 120 24" width="120" height="24"><defs><filter id="cFCo8GGsUxyv4mAP25LXzuJcuLJLiYmE" x="-200%" y="-200%" width="400%" height="400%"><feOffset xmlns="http://www.w3.org/2000/svg" in="SourceAlpha" result="offOut" dx="0" dy="0"/><feGaussianBlur xmlns="http://www.w3.org/2000/svg" in="offOut" result="blurOut" stdDeviation="0.5"/><feComponentTransfer xmlns="http://www.w3.org/2000/svg" in="blurOut" result="opacOut"><feFuncA xmlns="http://www.w3.org/2000/svg" type="table" tableValues="0 0.5"/></feComponentTransfer><feBlend xmlns="http://www.w3.org/2000/svg" in="SourceGraphic" in2="opacOut" mode="normal"/></filter></defs><g filter="url(#cFCo8GGsUxyv4mAP25LXzuJcuLJLiYmE)"><path d=" M 59.144 0.709 L 61.596 3.161 L 53.631 11.143 L 61.596 19.125 L 59.144 21.577 L 48.71 11.143 L 59.144 0.709 L 59.144 0.709 L 59.144 0.709 Z " fill="rgb(0,0,0)"/></g><defs><filter id="riJCwKAKJN589vUFPyD98xAxKU6RV5c9" x="-200%" y="-200%" width="400%" height="400%"><feOffset xmlns="http://www.w3.org/2000/svg" in="SourceAlpha" result="offOut" dx="0" dy="2"/><feGaussianBlur xmlns="http://www.w3.org/2000/svg" in="offOut" result="blurOut" stdDeviation="0.5"/><feComponentTransfer xmlns="http://www.w3.org/2000/svg" in="blurOut" result="opacOut"><feFuncA xmlns="http://www.w3.org/2000/svg" type="table" tableValues="0 0.5"/></feComponentTransfer><feBlend xmlns="http://www.w3.org/2000/svg" in="SourceGraphic" in2="opacOut" mode="normal"/></filter></defs><g filter="url(#riJCwKAKJN589vUFPyD98xAxKU6RV5c9)"><path d=" M 100.581 0.709 L 98.129 3.161 L 106.094 11.143 L 98.129 19.125 L 100.581 21.577 L 111.015 11.143 L 100.581 0.709 L 100.581 0.709 L 100.581 0.709 Z " fill="rgb(0,0,0)"/></g><defs><filter id="WUCe5OkCR3ncPEehDEGxEAOnXwYebGuO" x="-200%" y="-200%" width="400%" height="400%"><feOffset xmlns="http://www.w3.org/2000/svg" in="SourceAlpha" result="offOut" dx="0" dy="2"/><feGaussianBlur xmlns="http://www.w3.org/2000/svg" in="offOut" result="blurOut" stdDeviation="0.5"/><feComponentTransfer xmlns="http://www.w3.org/2000/svg" in="blurOut" result="opacOut"><feFuncA xmlns="http://www.w3.org/2000/svg" type="table" tableValues="0 0.5"/></feComponentTransfer><feBlend xmlns="http://www.w3.org/2000/svg" in="SourceGraphic" in2="opacOut" mode="normal"/></filter></defs><g filter="url(#WUCe5OkCR3ncPEehDEGxEAOnXwYebGuO)"><path d=" M 17.636 6.276 L 16.008 4.648 L 9.554 11.102 L 3.1 4.648 L 1.472 6.276 L 7.926 12.73 L 1.472 19.184 L 3.1 20.812 L 9.554 14.358 L 16.008 20.812 L 17.636 19.184 L 11.182 12.73 L 17.636 6.276 L 17.636 6.276 L 17.636 6.276 Z " fill="rgb(0,0,0)"/></g></svg>