<?xml version="1.0" standalone="no"?>
<!-- material.io/icons -->
<svg xmlns="http://www.w3.org/2000/svg" xmlns:xlink="http://www.w3.org/1999/xlink" style="isolation:isolate" viewBox="0 0 120 24" width="120" height="24">
  <path d=" M 100.581 0.709 L 98.129 3.161 L 106.094 11.143 L 98.129 19.125 L 100.581 21.577 L 111.015 11.143 L 100.581 0.709 L 100.581 0.709 L 100.581 0.709 L 100.581 0.709 L 100.581 0.709 Z " fill="rgb(0,0,0)"/>
  <path d=" M 59.144 0.709 L 61.596 3.161 L 53.631 11.143 L 61.596 19.125 L 59.144 21.577 L 48.71 11.143 L 59.144 0.709 L 59.144 0.709 L 59.144 0.709 L 59.144 0.709 L 59.144 0.709 Z " fill="rgb(0,0,0)"/>
  <path d=" M 17.636 6.276 L 16.008 4.648 L 9.554 11.102 L 3.1 4.648 L 1.472 6.276 L 7.926 12.73 L 1.472 19.184 L 3.1 20.812 L 9.554 14.358 L 16.008 20.812 L 17.636 19.184 L 11.182 12.73 L 17.636 6.276 L 17.636 6.276 L 17.636 6.276 L 17.636 6.276 L 17.636 6.276 Z " fill="rgb(255,255,255)"/>
</svg>